<mxfile host="app.diagrams.net" agent="Mozilla/5.0 (Windows NT 10.0; Win64; x64) AppleWebKit/537.36 (KHTML, like Gecko) Chrome/129.0.0.0 Safari/537.36" version="24.7.17">
  <diagram id="VrNFaQxc9sCtZA1k9E9d" name="ACTIVITY">
    <mxGraphModel dx="1034" dy="454" grid="1" gridSize="10" guides="1" tooltips="1" connect="1" arrows="1" fold="1" page="1" pageScale="1" pageWidth="850" pageHeight="1100" math="0" shadow="0">
      <root>
        <mxCell id="0" />
        <mxCell id="1" parent="0" />
        <mxCell id="qgSIAq-bmaxFs28gFE0Q-1" value="Mulai" style="whiteSpace=wrap;strokeWidth=2;fillColor=#76608a;fontColor=#ffffff;strokeColor=#432D57;" parent="1" vertex="1">
          <mxGeometry x="328" y="20" width="53" height="34" as="geometry" />
        </mxCell>
        <mxCell id="qgSIAq-bmaxFs28gFE0Q-2" value="Pemasok Mengirim Barang" style="whiteSpace=wrap;strokeWidth=2;fillColor=#76608a;fontColor=#ffffff;strokeColor=#432D57;" parent="1" vertex="1">
          <mxGeometry x="254" y="104" width="201" height="34" as="geometry" />
        </mxCell>
        <mxCell id="qgSIAq-bmaxFs28gFE0Q-3" value="Menerima Data Barang" style="whiteSpace=wrap;strokeWidth=2;fillColor=#76608a;fontColor=#ffffff;strokeColor=#432D57;" parent="1" vertex="1">
          <mxGeometry x="266" y="187" width="177" height="34" as="geometry" />
        </mxCell>
        <mxCell id="qgSIAq-bmaxFs28gFE0Q-4" value="Update Stok Barang" style="whiteSpace=wrap;strokeWidth=2;fillColor=#76608a;fontColor=#ffffff;strokeColor=#432D57;" parent="1" vertex="1">
          <mxGeometry x="277" y="271" width="156" height="34" as="geometry" />
        </mxCell>
        <mxCell id="qgSIAq-bmaxFs28gFE0Q-5" value="Notifikasi Stok Masuk" style="whiteSpace=wrap;strokeWidth=2;fillColor=#76608a;fontColor=#ffffff;strokeColor=#432D57;" parent="1" vertex="1">
          <mxGeometry x="271" y="355" width="167" height="34" as="geometry" />
        </mxCell>
        <mxCell id="qgSIAq-bmaxFs28gFE0Q-6" value="Admin Memverifikasi Stok" style="whiteSpace=wrap;strokeWidth=2;fillColor=#76608a;fontColor=#ffffff;strokeColor=#432D57;" parent="1" vertex="1">
          <mxGeometry x="254" y="438" width="200" height="34" as="geometry" />
        </mxCell>
        <mxCell id="qgSIAq-bmaxFs28gFE0Q-7" value="Pencatatan Selesai" style="whiteSpace=wrap;strokeWidth=2;fillColor=#76608a;fontColor=#ffffff;strokeColor=#432D57;" parent="1" vertex="1">
          <mxGeometry x="401" y="541" width="149" height="34" as="geometry" />
        </mxCell>
        <mxCell id="qgSIAq-bmaxFs28gFE0Q-8" value="Notifikasi Kesalahan" style="whiteSpace=wrap;strokeWidth=2;fillColor=#76608a;fontColor=#ffffff;strokeColor=#432D57;" parent="1" vertex="1">
          <mxGeometry x="20" y="1247" width="159" height="34" as="geometry" />
        </mxCell>
        <mxCell id="qgSIAq-bmaxFs28gFE0Q-9" value="Pelanggan Mengajukan Permintaan Barang" style="whiteSpace=wrap;strokeWidth=2;fillColor=#76608a;fontColor=#ffffff;strokeColor=#432D57;" parent="1" vertex="1">
          <mxGeometry x="317" y="624" width="317" height="34" as="geometry" />
        </mxCell>
        <mxCell id="qgSIAq-bmaxFs28gFE0Q-10" value="Mengecek Ketersediaan Stok" style="whiteSpace=wrap;strokeWidth=2;fillColor=#76608a;fontColor=#ffffff;strokeColor=#432D57;" parent="1" vertex="1">
          <mxGeometry x="366" y="708" width="220" height="34" as="geometry" />
        </mxCell>
        <mxCell id="qgSIAq-bmaxFs28gFE0Q-11" value="Proses Pengeluaran Barang" style="whiteSpace=wrap;strokeWidth=2;fillColor=#76608a;fontColor=#ffffff;strokeColor=#432D57;" parent="1" vertex="1">
          <mxGeometry x="507" y="810" width="206" height="34" as="geometry" />
        </mxCell>
        <mxCell id="qgSIAq-bmaxFs28gFE0Q-12" value="Update Stok Setelah Pengeluaran" style="whiteSpace=wrap;strokeWidth=2;fillColor=#76608a;fontColor=#ffffff;strokeColor=#432D57;" parent="1" vertex="1">
          <mxGeometry x="483" y="913" width="253" height="34" as="geometry" />
        </mxCell>
        <mxCell id="qgSIAq-bmaxFs28gFE0Q-13" value="Notifikasi Pengeluaran ke Pelanggan" style="whiteSpace=wrap;strokeWidth=2;fillColor=#76608a;fontColor=#ffffff;strokeColor=#432D57;" parent="1" vertex="1">
          <mxGeometry x="473" y="996" width="274" height="34" as="geometry" />
        </mxCell>
        <mxCell id="qgSIAq-bmaxFs28gFE0Q-14" value="Notifikasi Stok Tidak Tersedia" style="whiteSpace=wrap;strokeWidth=2;fillColor=#76608a;fontColor=#ffffff;strokeColor=#432D57;" parent="1" vertex="1">
          <mxGeometry x="229" y="1247" width="225" height="34" as="geometry" />
        </mxCell>
        <mxCell id="qgSIAq-bmaxFs28gFE0Q-15" value="Pemantauan Stok Secara Berkala" style="whiteSpace=wrap;strokeWidth=2;fillColor=#76608a;fontColor=#ffffff;strokeColor=#432D57;" parent="1" vertex="1">
          <mxGeometry x="485" y="1080" width="249" height="34" as="geometry" />
        </mxCell>
        <mxCell id="qgSIAq-bmaxFs28gFE0Q-16" value="Notifikasi Barang Kadaluarsa" style="whiteSpace=wrap;strokeWidth=2;fillColor=#76608a;fontColor=#ffffff;strokeColor=#432D57;" parent="1" vertex="1">
          <mxGeometry x="500" y="1164" width="219" height="34" as="geometry" />
        </mxCell>
        <mxCell id="qgSIAq-bmaxFs28gFE0Q-17" value="Admin Mengambil Tindakan" style="whiteSpace=wrap;strokeWidth=2;fillColor=#76608a;fontColor=#ffffff;strokeColor=#432D57;" parent="1" vertex="1">
          <mxGeometry x="504" y="1247" width="211" height="34" as="geometry" />
        </mxCell>
        <mxCell id="qgSIAq-bmaxFs28gFE0Q-18" value="Selesai" style="whiteSpace=wrap;strokeWidth=2;fillColor=#76608a;fontColor=#ffffff;strokeColor=#432D57;" parent="1" vertex="1">
          <mxGeometry x="309" y="1331" width="64" height="34" as="geometry" />
        </mxCell>
        <mxCell id="qgSIAq-bmaxFs28gFE0Q-19" value="" style="curved=1;startArrow=none;endArrow=block;exitX=0.5;exitY=0.99;entryX=0.5;entryY=-0.01;rounded=0;" parent="1" source="qgSIAq-bmaxFs28gFE0Q-1" target="qgSIAq-bmaxFs28gFE0Q-2" edge="1">
          <mxGeometry relative="1" as="geometry">
            <Array as="points" />
          </mxGeometry>
        </mxCell>
        <mxCell id="qgSIAq-bmaxFs28gFE0Q-20" value="" style="curved=1;startArrow=none;endArrow=block;exitX=0.5;exitY=0.98;entryX=0.5;entryY=0.01;rounded=0;" parent="1" source="qgSIAq-bmaxFs28gFE0Q-2" target="qgSIAq-bmaxFs28gFE0Q-3" edge="1">
          <mxGeometry relative="1" as="geometry">
            <Array as="points" />
          </mxGeometry>
        </mxCell>
        <mxCell id="qgSIAq-bmaxFs28gFE0Q-21" value="" style="curved=1;startArrow=none;endArrow=block;exitX=0.5;exitY=1;entryX=0.5;entryY=0;rounded=0;" parent="1" source="qgSIAq-bmaxFs28gFE0Q-3" target="qgSIAq-bmaxFs28gFE0Q-4" edge="1">
          <mxGeometry relative="1" as="geometry">
            <Array as="points" />
          </mxGeometry>
        </mxCell>
        <mxCell id="qgSIAq-bmaxFs28gFE0Q-22" value="" style="curved=1;startArrow=none;endArrow=block;exitX=0.5;exitY=0.99;entryX=0.5;entryY=-0.01;rounded=0;" parent="1" source="qgSIAq-bmaxFs28gFE0Q-4" target="qgSIAq-bmaxFs28gFE0Q-5" edge="1">
          <mxGeometry relative="1" as="geometry">
            <Array as="points" />
          </mxGeometry>
        </mxCell>
        <mxCell id="qgSIAq-bmaxFs28gFE0Q-23" value="" style="curved=1;startArrow=none;endArrow=block;exitX=0.5;exitY=0.98;entryX=0.5;entryY=0.01;rounded=0;" parent="1" source="qgSIAq-bmaxFs28gFE0Q-5" target="qgSIAq-bmaxFs28gFE0Q-6" edge="1">
          <mxGeometry relative="1" as="geometry">
            <Array as="points" />
          </mxGeometry>
        </mxCell>
        <mxCell id="qgSIAq-bmaxFs28gFE0Q-24" value="Stok Valid" style="curved=1;startArrow=none;endArrow=block;exitX=0.7;exitY=1;entryX=0.5;entryY=-0.01;rounded=0;" parent="1" source="qgSIAq-bmaxFs28gFE0Q-6" target="qgSIAq-bmaxFs28gFE0Q-7" edge="1">
          <mxGeometry relative="1" as="geometry">
            <Array as="points">
              <mxPoint x="476" y="506" />
            </Array>
          </mxGeometry>
        </mxCell>
        <mxCell id="qgSIAq-bmaxFs28gFE0Q-25" value="Stok Tidak Valid" style="curved=1;startArrow=none;endArrow=block;exitX=0.08;exitY=1;entryX=0.5;entryY=0.01;rounded=0;" parent="1" source="qgSIAq-bmaxFs28gFE0Q-6" target="qgSIAq-bmaxFs28gFE0Q-8" edge="1">
          <mxGeometry relative="1" as="geometry">
            <Array as="points">
              <mxPoint x="99" y="506" />
            </Array>
          </mxGeometry>
        </mxCell>
        <mxCell id="qgSIAq-bmaxFs28gFE0Q-26" value="" style="curved=1;startArrow=none;endArrow=block;exitX=0.5;exitY=0.98;entryX=0.5;entryY=0.01;rounded=0;" parent="1" source="qgSIAq-bmaxFs28gFE0Q-7" target="qgSIAq-bmaxFs28gFE0Q-9" edge="1">
          <mxGeometry relative="1" as="geometry">
            <Array as="points" />
          </mxGeometry>
        </mxCell>
        <mxCell id="qgSIAq-bmaxFs28gFE0Q-27" value="" style="curved=1;startArrow=none;endArrow=block;exitX=0.5;exitY=1;entryX=0.5;entryY=0;rounded=0;" parent="1" source="qgSIAq-bmaxFs28gFE0Q-9" target="qgSIAq-bmaxFs28gFE0Q-10" edge="1">
          <mxGeometry relative="1" as="geometry">
            <Array as="points" />
          </mxGeometry>
        </mxCell>
        <mxCell id="qgSIAq-bmaxFs28gFE0Q-28" value="Stok Tersedia" style="curved=1;startArrow=none;endArrow=block;exitX=0.7;exitY=0.99;entryX=0.5;entryY=0.01;rounded=0;" parent="1" source="qgSIAq-bmaxFs28gFE0Q-10" target="qgSIAq-bmaxFs28gFE0Q-11" edge="1">
          <mxGeometry relative="1" as="geometry">
            <Array as="points">
              <mxPoint x="610" y="776" />
            </Array>
          </mxGeometry>
        </mxCell>
        <mxCell id="qgSIAq-bmaxFs28gFE0Q-29" value="" style="curved=1;startArrow=none;endArrow=block;exitX=0.5;exitY=1;entryX=0.5;entryY=-0.01;rounded=0;" parent="1" source="qgSIAq-bmaxFs28gFE0Q-11" target="qgSIAq-bmaxFs28gFE0Q-12" edge="1">
          <mxGeometry relative="1" as="geometry">
            <Array as="points" />
          </mxGeometry>
        </mxCell>
        <mxCell id="qgSIAq-bmaxFs28gFE0Q-30" value="" style="curved=1;startArrow=none;endArrow=block;exitX=0.5;exitY=0.98;entryX=0.5;entryY=0.01;rounded=0;" parent="1" source="qgSIAq-bmaxFs28gFE0Q-12" target="qgSIAq-bmaxFs28gFE0Q-13" edge="1">
          <mxGeometry relative="1" as="geometry">
            <Array as="points" />
          </mxGeometry>
        </mxCell>
        <mxCell id="qgSIAq-bmaxFs28gFE0Q-31" value="Stok Tidak Tersedia" style="curved=1;startArrow=none;endArrow=block;exitX=0.3;exitY=0.99;entryX=0.5;entryY=0.01;rounded=0;" parent="1" source="qgSIAq-bmaxFs28gFE0Q-10" target="qgSIAq-bmaxFs28gFE0Q-14" edge="1">
          <mxGeometry relative="1" as="geometry">
            <Array as="points">
              <mxPoint x="341" y="776" />
            </Array>
          </mxGeometry>
        </mxCell>
        <mxCell id="qgSIAq-bmaxFs28gFE0Q-32" value="" style="curved=1;startArrow=none;endArrow=block;exitX=0.5;exitY=1;entryX=0.5;entryY=0;rounded=0;" parent="1" source="qgSIAq-bmaxFs28gFE0Q-13" target="qgSIAq-bmaxFs28gFE0Q-15" edge="1">
          <mxGeometry relative="1" as="geometry">
            <Array as="points" />
          </mxGeometry>
        </mxCell>
        <mxCell id="qgSIAq-bmaxFs28gFE0Q-33" value="" style="curved=1;startArrow=none;endArrow=block;exitX=0.5;exitY=0.99;entryX=0.5;entryY=-0.01;rounded=0;" parent="1" source="qgSIAq-bmaxFs28gFE0Q-15" target="qgSIAq-bmaxFs28gFE0Q-16" edge="1">
          <mxGeometry relative="1" as="geometry">
            <Array as="points" />
          </mxGeometry>
        </mxCell>
        <mxCell id="qgSIAq-bmaxFs28gFE0Q-34" value="" style="curved=1;startArrow=none;endArrow=block;exitX=0.5;exitY=0.98;entryX=0.5;entryY=0.01;rounded=0;" parent="1" source="qgSIAq-bmaxFs28gFE0Q-16" target="qgSIAq-bmaxFs28gFE0Q-17" edge="1">
          <mxGeometry relative="1" as="geometry">
            <Array as="points" />
          </mxGeometry>
        </mxCell>
        <mxCell id="qgSIAq-bmaxFs28gFE0Q-35" value="" style="curved=1;startArrow=none;endArrow=block;exitX=0.5;exitY=1;entryX=0;entryY=0.33;rounded=0;" parent="1" source="qgSIAq-bmaxFs28gFE0Q-8" target="qgSIAq-bmaxFs28gFE0Q-18" edge="1">
          <mxGeometry relative="1" as="geometry">
            <Array as="points">
              <mxPoint x="99" y="1306" />
            </Array>
          </mxGeometry>
        </mxCell>
        <mxCell id="qgSIAq-bmaxFs28gFE0Q-36" value="" style="curved=1;startArrow=none;endArrow=block;exitX=0.5;exitY=1;entryX=0.51;entryY=0;rounded=0;" parent="1" source="qgSIAq-bmaxFs28gFE0Q-14" target="qgSIAq-bmaxFs28gFE0Q-18" edge="1">
          <mxGeometry relative="1" as="geometry">
            <Array as="points" />
          </mxGeometry>
        </mxCell>
        <mxCell id="qgSIAq-bmaxFs28gFE0Q-37" value="" style="curved=1;startArrow=none;endArrow=block;exitX=0.5;exitY=1;entryX=1.01;entryY=0.35;rounded=0;" parent="1" source="qgSIAq-bmaxFs28gFE0Q-17" target="qgSIAq-bmaxFs28gFE0Q-18" edge="1">
          <mxGeometry relative="1" as="geometry">
            <Array as="points">
              <mxPoint x="610" y="1306" />
            </Array>
          </mxGeometry>
        </mxCell>
        <mxCell id="6ERgLUY394ZkCJhOqNqh-1" value="&lt;b&gt;Activity Diagram&lt;/b&gt;" style="whiteSpace=wrap;html=1;fillColor=#647687;fontColor=#ffffff;strokeColor=#314354;" parent="1" vertex="1">
          <mxGeometry x="520" y="30" width="150" height="70" as="geometry" />
        </mxCell>
      </root>
    </mxGraphModel>
  </diagram>
</mxfile>
